{"title":"Circle.of.Pain.2010.DVDRip.MP4.AAC.FEEL-FREE","uid":5631228,"size":884352302,"categoryP":"video","categoryS":"movies","magnet":"?xt=urn:btih:f813618481a4c7a09a5f8607c5814ff17c4cbac0&amp;dn=Circle.of.Pain.2010.DVDRip.MP4.AAC.FEEL-FREE&amp;tr=udp%3A%2F%2Ftracker.openbittorrent.com%3A80&amp;tr=udp%3A%2F%2Fopen.demonii.com%3A1337&amp;tr=udp%3A%2F%2Ftracker.coppersurfer.tk%3A6969&amp;tr=udp%3A%2F%2Fexodus.desync.com%3A6969","seeders":0,"leechers":1,"uploader":"hiest","files":6,"time":1276646537,"description":"Genre:Action\nLanguage:English\nIMDb:http://www.imdb.com/title/tt1541664/\nEncoder: Tony2\n............................................\nGeneral\nComplete name : Circle.of.Pain.2010.DVDRip.MP4.AAC.FEEL-FREE\nFormat : MPEG-4\nFormat profile : Base Media\nCodec ID : isom\nFile size : 843 MiB\nDuration : 1h 28mn\nOverall bit rate : 1 332 Kbps\n..........................................\nVideo\nID : 1\nFormat : MPEG-4 Visual\nFormat profile : Simple@L1\nFormat settings, Matrix : Default (H.263)\nCodec ID : 20\nDuration : 1h 28mn\nBit rate mode : Variable\nBit rate : 1 200 Kbps\nWidth : 704 pixels\nHeight : 304 pixels\nDisplay aspect ratio : 2.35:1\nFrame rate mode : Constant\nFrame rate : 23.976 fps\nResolution : 24 bits\nColorimetry : 4:2:0\nScan type : Progressive\nBits/(Pixel*Frame) : 0.234\nStream size : 759 MiB (90%)\nWriting library : Lavc51.40.4\n.............................................\nAudio\nID : 2\nFormat : AAC\nFormat/Info : Advanced Audio Codec\nFormat version : Version 4\nFormat profile : LC\nFormat settings, SBR : No\nCodec ID : 40\nDuration : 1h 28mn\nBit rate mode : Variable\nBit rate : 128 Kbps\nChannel(s) : 2 channels\nChannel positions : L R\nSampling rate : 48.0 KHz\nResolution : 16 bits\nStream size : 80.9 MiB (10%)\n.............................................\nPlot: \n---------------------\n...................................................\nScreens: &lt;a href=&quot;\nhttp://postimg.com/image/17000/16411.jpg&quot; rel=&quot;nofollow&quot; target=&quot;_NEW&quot;&gt;\nhttp://postimg.com/image/17000/16411.jpg&lt;/a&gt;\n........................................................","torrent":{"xt":"urn:btih:f813618481a4c7a09a5f8607c5814ff17c4cbac0","amp;dn":"Circle.of.Pain.2010.DVDRip.MP4.AAC.FEEL-FREE","amp;tr":["udp%3A%2F%2Ftracker.openbittorrent.com%3A80","udp%3A%2F%2Fopen.demonii.com%3A1337","udp%3A%2F%2Ftracker.coppersurfer.tk%3A6969","udp%3A%2F%2Fexodus.desync.com%3A6969"],"infoHash":"f813618481a4c7a09a5f8607c5814ff17c4cbac0","infoHashBuffer":{"type":"Buffer","data":[248,19,97,132,129,164,199,160,154,95,134,7,197,129,79,241,124,76,186,192]},"announce":[],"urlList":[]}}